<svg width="73" height="73" viewBox="0 0 73 73" fill="none" xmlns="http://www.w3.org/2000/svg">
<path opacity="0.1" d="M71.0156 62.2969L56.9531 48.2344C56.25 47.6719 55.4062 47.25 54.5625 47.25H52.3125C56.1094 42.3281 58.5 36.1406 58.5 29.25C58.5 13.2188 45.2812 0 29.25 0C13.0781 0 0 13.2188 0 29.25C0 45.4219 13.0781 58.5 29.25 58.5C36 58.5 42.1875 56.25 47.25 52.3125V54.7031C47.25 55.5469 47.5312 56.3906 48.2344 57.0938L62.1562 71.0156C63.5625 72.4219 65.6719 72.4219 66.9375 71.0156L70.875 67.0781C72.2812 65.8125 72.2812 63.7031 71.0156 62.2969ZM29.25 47.25C19.2656 47.25 11.25 39.2344 11.25 29.25C11.25 19.4062 19.2656 11.25 29.25 11.25C39.0938 11.25 47.25 19.4062 47.25 29.25C47.25 39.2344 39.0938 47.25 29.25 47.25Z" fill="#030388"/>
</svg>
