<svg width="72" height="54" viewBox="0 0 72 54" fill="none" xmlns="http://www.w3.org/2000/svg">
<path opacity="0.2" d="M69.75 45H9V2.25C9 1.125 7.875 0 6.75 0H2.25C0.984375 0 0 1.125 0 2.25V49.5C0 52.0312 1.96875 54 4.5 54H69.75C70.875 54 72 53.0156 72 51.75V47.25C72 46.125 70.875 45 69.75 45ZM65.25 4.5H48.5156C45.5625 4.5 44.0156 8.15625 46.125 10.2656L50.7656 14.9062L40.5 25.1719L30.0938 14.9062C28.4062 13.0781 25.4531 13.0781 23.7656 14.9062L14.0625 24.6094C13.2188 25.4531 13.2188 26.8594 14.0625 27.7031L17.2969 30.9375C18.1406 31.7812 19.5469 31.7812 20.3906 30.9375L27 24.4688L37.2656 34.7344C38.9531 36.5625 41.9062 36.5625 43.5938 34.7344L57.0938 21.2344L61.7344 25.875C63.8438 27.9844 67.3594 26.4375 67.3594 23.4844V6.75C67.5 5.625 66.375 4.5 65.25 4.5Z" fill="#FF8887"/>
</svg>
