<svg width="54" height="72" viewBox="0 0 54 72" fill="none" xmlns="http://www.w3.org/2000/svg">
<path opacity="0.2" d="M31.5 19.125V0H3.375C1.40625 0 0 1.54688 0 3.375V68.625C0 70.5938 1.40625 72 3.375 72H50.625C52.4531 72 54 70.5938 54 68.625V22.5H34.875C32.9062 22.5 31.5 21.0938 31.5 19.125ZM40.5 52.3125C40.5 53.2969 39.6562 54 38.8125 54H15.1875C14.2031 54 13.5 53.2969 13.5 52.3125V51.1875C13.5 50.3438 14.2031 49.5 15.1875 49.5H38.8125C39.6562 49.5 40.5 50.3438 40.5 51.1875V52.3125ZM40.5 43.3125C40.5 44.2969 39.6562 45 38.8125 45H15.1875C14.2031 45 13.5 44.2969 13.5 43.3125V42.1875C13.5 41.3438 14.2031 40.5 15.1875 40.5H38.8125C39.6562 40.5 40.5 41.3438 40.5 42.1875V43.3125ZM40.5 33.1875V34.3125C40.5 35.2969 39.6562 36 38.8125 36H15.1875C14.2031 36 13.5 35.2969 13.5 34.3125V33.1875C13.5 32.3438 14.2031 31.5 15.1875 31.5H38.8125C39.6562 31.5 40.5 32.3438 40.5 33.1875ZM54 17.1562C54 16.3125 53.5781 15.4688 53.0156 14.7656L39.2344 0.984375C38.5312 0.421875 37.6875 0 36.8438 0H36V18H54V17.1562Z" fill="#5ECBE1"/>
</svg>
