<svg width="1638" height="838" viewBox="0 0 1638 838" fill="none" xmlns="http://www.w3.org/2000/svg">
<path d="M1637.14 14.3331H1347.16L1105.73 594.306L822.483 14.3331H581.053V50.75H688.955V787.181H581.053V823.598H853.505C848.11 801.118 835.971 788.979 817.088 787.181H745.603V278.693L1032.89 837.085H1057.17L1347.16 146.513V787.181H1239.25V823.598H1637.14C1631.75 801.118 1619.61 788.979 1600.73 787.181H1529.24V50.75H1637.14V14.3331Z" fill="black"/>
<path d="M475.214 451.336V487.753H589.86V745.369C548.497 777.739 499.492 793.925 442.843 793.925C333.143 793.925 262.557 736.377 231.086 621.281C216.699 567.331 209.505 500.791 209.505 421.663C209.505 185.178 280.091 59.2922 421.263 44.0061C432.053 43.1069 442.843 42.6573 453.633 42.6573C582.217 42.6573 663.593 127.63 697.762 297.576C697.762 298.475 697.762 299.374 697.762 300.273H739.574L734.178 14.3331L607.394 39.9598C545.35 13.8835 480.159 0.845337 411.821 0.845337C288.633 0.845337 188.375 39.0606 111.045 115.491C37.3118 191.022 0.445312 291.281 0.445312 416.268C0.445312 577.221 58.4426 695.014 174.437 769.647C244.573 813.707 325.05 835.737 415.868 835.737C487.802 835.737 553.443 822.249 612.789 795.273L775.99 823.598V487.753H863.661V451.336H475.214Z" fill="#FDC412"/>
</svg>
