<svg width="58" height="40" viewBox="0 0 58 40" fill="none" xmlns="http://www.w3.org/2000/svg">
<path d="M13.6678 0.597656L32.6141 24.415V7.9043C32.6141 5.60091 32.2837 4.04329 31.6229 3.23145C30.7166 2.13639 29.1968 1.60775 27.0633 1.64551V0.597656H39.7508V1.64551C38.1271 1.85319 37.0321 2.12695 36.4657 2.4668C35.9181 2.78776 35.4839 3.32585 35.1629 4.08105C34.8608 4.81738 34.7098 6.0918 34.7098 7.9043V39.8779H33.7469L7.77719 7.9043V32.3164C7.77719 34.5254 8.27751 36.0169 9.27816 36.791C10.2977 37.5651 11.4588 37.9521 12.7616 37.9521H13.6678V39H0.045742V37.9521C2.16033 37.9333 3.63298 37.499 4.46371 36.6494C5.29444 35.7998 5.7098 34.3555 5.7098 32.3164V5.21387L4.88852 4.19434C4.07667 3.1748 3.35922 2.50456 2.73617 2.18359C2.11312 1.86263 1.21631 1.68327 0.045742 1.64551V0.597656H13.6678ZM39.9796 21.6113V32.2598C39.9796 34.3366 40.1024 35.6488 40.3478 36.1963C40.6121 36.7249 41.0653 37.1497 41.7072 37.4707C42.368 37.7917 43.5669 37.9521 45.3039 37.9521V39H25.7912V37.9521C27.5659 37.9521 28.7648 37.7917 29.3879 37.4707C30.0298 37.1309 30.4735 36.6966 30.7189 36.168C30.9832 35.6393 31.1154 34.3366 31.1154 32.2598V7.33789C31.1154 5.26107 30.9832 3.95833 30.7189 3.42969C30.4735 2.88216 30.0298 2.44792 29.3879 2.12695C28.7459 1.80599 27.547 1.64551 25.7912 1.64551V0.597656H42.5285C48.0415 0.597656 51.9969 1.57943 54.3947 3.54297C56.7925 5.50651 57.9914 7.96094 57.9914 10.9062C57.9914 13.3984 57.2173 15.5319 55.6691 17.3066C54.1209 19.0814 51.9875 20.2897 49.2687 20.9316C47.4373 21.3848 44.341 21.6113 39.9796 21.6113ZM39.9796 2.80664V19.4023C40.6027 19.4401 41.0747 19.459 41.3957 19.459C43.699 19.459 45.4738 18.7793 46.7199 17.4199C47.966 16.0417 48.589 13.9176 48.589 11.0479C48.589 8.19694 47.966 6.11068 46.7199 4.78906C45.4738 3.46745 43.6141 2.80664 41.1408 2.80664H39.9796Z" fill="black"/>
</svg>
